Coordinates
version=1
nRows=11
nColumns=40
inDegrees=yes

Units are S.I. units (second, meters, Newtons, ...)
Angles are in degrees.

endheader
time	pelvis_tilt	pelvis_list	pelvis_rotation	pelvis_tx	pelvis_ty	pelvis_tz	hip_flexion_r	hip_adduction_r	hip_rotation_r	knee_angle_r	knee_angle_r_beta	ankle_angle_r	subtalar_angle_r	mtp_angle_r	hip_flexion_l	hip_adduction_l	hip_rotation_l	knee_angle_l	knee_angle_l_beta	ankle_angle_l	subtalar_angle_l	mtp_angle_l	lumbar_extension	lumbar_bending	lumbar_rotation	arm_flex_r	arm_add_r	arm_rot_r	elbow_flex_r	pro_sup_r	wrist_flex_r	wrist_dev_r	arm_flex_l	arm_add_l	arm_rot_l	elbow_flex_l	pro_sup_l	wrist_flex_l	wrist_dev_l
      3.07500000	     -4.91547314	     -4.64953415	     -5.86566180	      1.00800884	      0.92874758	      0.44369874	     21.66112021	     -0.21195724	    -13.64237219	      7.39063040	      7.39063040	      0.72985385	     12.22073525	      5.66265753	      4.27681439	     -7.05983990	    -15.05291938	     15.83938703	     15.83938703	     15.57806531	    -10.43359766	     -3.08848718	     -9.14250919	      5.70862137	      2.21203535	     -9.48902970	    -10.97970606	     -4.95195934	     27.72717735	     46.08077166	      0.00000000	      0.00000000	     27.85755025	    -22.50211024	     -9.83639199	     70.96253431	     47.07086730	      0.00000000	      0.00000000
      3.08821429	     -4.91521779	     -4.64399037	     -5.79468041	      1.00947677	      0.92787001	      0.44573879	     21.30654028	      0.03447117	    -14.11831636	      7.50486614	      7.50486614	      0.76643964	     11.91087255	      5.55249133	      3.80356104	     -7.15151487	    -14.97154309	     15.85638350	     15.85638350	     15.88964714	    -10.42400681	     -3.13416746	     -8.94069672	      5.76830880	      2.27343421	     -8.94095270	    -10.99086676	     -4.92707494	     27.89920380	     46.07707831	      0.00000000	      0.00000000	     27.41959147	    -22.03301332	     -9.69701517	     70.77273736	     47.05663063	      0.00000000	      0.00000000
      3.10142857	     -4.84388330	     -4.72516451	     -5.68167219	      1.01114728	      0.92717173	      0.44794059	     20.84233908	      0.31646801	    -14.56295554	      7.86574197	      7.86574197	      0.79453355	     11.44341113	      5.28888082	      3.23892415	     -7.34557230	    -14.85227790	     15.87648308	     15.87648308	     16.22627812	    -10.41134268	     -3.15090028	     -8.82637359	      5.92398190	      2.35133202	     -8.30727254	    -11.03463001	     -4.90903891	     28.09439763	     46.07365481	      0.00000000	      0.00000000	     26.84163587	    -21.52449606	     -9.53563649	     70.47245019	     47.03764395	      0.00000000	      0.00000000
      3.11464286	     -4.55928657	     -4.77621427	     -5.54042524	      1.01320682	      0.92650532	      0.45042468	     20.29314354	      0.58151875	    -13.99195934	      8.52155095	      8.52155095	     -1.02040852	      9.17154425	     -1.41679675	      2.56766033	     -7.63620098	    -15.17661773	     16.32428929	     16.32428929	     17.70856905	     -9.22004756	     -1.04592315	     -8.77778447	      6.04893155	      2.02249235	     -7.17567248	    -11.20217294	     -4.28480609	     27.55256189	     46.08044017	      0.00000000	      0.00000000	     26.35619712	    -21.18121414	    -10.09890360	     68.98131433	     47.10086467	      0.00000000	      0.00000000
      3.12785714	     -4.29728692	     -4.92587664	     -5.36739469	      1.01523571	      0.92610613	      0.45289242	     19.95465033	      0.76881745	    -14.01568417	      9.79292266	      9.79292266	     -0.68134319	      8.07658206	     -2.09103511	      1.85196861	     -7.94471200	    -15.03134752	     16.49446678	     16.49446678	     18.01551151	     -9.21922072	     -0.98512282	     -8.82062982	      6.29575663	      2.00175530	     -6.35903347	    -11.32526270	     -4.28674772	     27.84953426	     46.07732682	      0.00000000	      0.00000000	     25.56260458	    -20.78747820	     -9.90913487	     68.39895971	     47.07667301	      0.00000000	      0.00000000
      3.14107143	     -4.15319775	     -4.98061848	     -5.18114717	      1.01720757	      0.92551389	      0.45559443	     19.87451948	      0.95212231	    -13.11153240	     11.18266316	     11.18266316	     -0.78981803	      5.44881809	     -4.14962124	      1.45358664	     -8.26742438	    -14.99888791	     17.04145397	     17.04145397	     18.67871496	     -8.86958054	     -0.28455221	     -8.65132842	      6.42933822	      1.88016521	     -5.33247617	    -11.37947813	     -4.16190135	     27.92832247	     46.08257232	      0.00000000	      0.00000000	     24.82025090	    -20.33505418	     -9.80624198	     67.04065155	     47.06064502	      0.00000000	      0.00000000
      3.15428571	     -3.79768017	     -5.04356136	     -4.97677208	      1.01942994	      0.92536509	      0.45833312	     19.65450182	      0.99059384	    -12.86419481	     12.80362023	     12.80362023	     -0.17906114	      4.23851754	     -4.94125466	      0.74674514	     -8.55505953	    -14.89716634	     17.42324672	     17.42324672	     18.95050118	     -8.75527367	     -0.14687159	     -8.74511310	      6.54668587	      1.80761151	     -4.32195019	    -11.49148837	     -4.17913554	     28.25854367	     46.08123012	      0.00000000	      0.00000000	     23.89892007	    -19.94708871	     -9.61019467	     66.13257623	     47.02998404	      0.00000000	      0.00000000
      3.16750000	     -3.53783106	     -5.06627012	     -4.75367678	      1.02160580	      0.92521964	      0.46122821	     19.57303261	      1.04654998	    -12.30446117	     14.37461711	     14.37461711	      0.48697889	      2.59561943	     -5.56707393	      0.32852856	     -8.89072746	    -14.80142889	     18.13375503	     18.13375503	     19.20737764	     -8.63936222	      0.00202117	     -8.70192069	      6.63972505	      1.64731120	     -3.18899750	    -11.55411257	     -4.18456142	     28.57529092	     46.08082271	      0.00000000	      0.00000000	     22.88979027	    -19.55832815	     -9.41123115	     64.81410067	     46.99269884	      0.00000000	      0.00000000
      3.18071429	     -3.29319274	     -5.12435530	     -4.53181841	      1.02381385	      0.92525210	      0.46436355	     19.42590239	      1.21392219	    -11.58748324	     15.70896363	     15.70896363	      1.18132802	      0.87567864	     -5.86639967	      0.06182911	     -9.34659679	    -14.72070515	     19.11470092	     19.11470092	     19.45795659	     -8.47993874	      0.15413436	     -8.60311840	      6.74921852	      1.52122338	     -1.97198083	    -11.62678549	     -4.16344851	     28.80395443	     46.08387446	      0.00000000	      0.00000000	     21.89590131	    -19.11006607	     -9.19048691	     63.04346980	     46.94901573	      0.00000000	      0.00000000
      3.19392857	     -2.97227658	     -5.20286109	     -4.28294399	      1.02605725	      0.92565066	      0.46763831	     19.06499723	      1.42751967	    -11.01443851	     16.75017170	     16.75017170	      2.01636837	     -0.45984753	     -5.71143813	     -0.16555288	     -9.88125974	    -14.63118536	     20.31134108	     20.31134108	     19.55773031	     -8.33643461	      0.23054857	     -8.61628427	      6.85604255	      1.55601604	     -0.73789193	    -11.70543840	     -4.09558071	     28.91978127	     46.09019511	      0.00000000	      0.00000000	     21.12881325	    -18.52544246	     -8.89636521	     60.85119480	     46.89924621	      0.00000000	      0.00000000
      3.20714286	     -2.67590060	     -5.21153426	     -4.02347539	      1.02820936	      0.92614962	      0.47093101	     18.70428811	      1.52090713	    -10.74907884	     17.69340035	     17.69340035	      2.86265216	     -1.12400880	     -5.78840235	     -0.18373180	    -10.36273317	    -14.31661753	     21.77317916	     21.77317916	     19.34479327	     -8.56434989	     -0.05569630	     -8.65137592	      6.89790489	      1.44837537	      0.57273773	    -11.77600437	     -4.11374021	     29.42093023	     46.08345526	      0.00000000	      0.00000000	     19.94479785	    -18.14074884	     -8.60631756	     59.20920407	     46.84825204	      0.00000000	      0.00000000
